<svg width="75" height="115" viewBox="0 0 75 115" fill="none" xmlns="http://www.w3.org/2000/svg">
<path d="M0.455307 104.173C1.37663 105.191 2.10912 106.728 3.25025 107.143C10.4884 109.778 17.7216 112.52 25.1494 114.509C30.0785 115.829 32.4744 113.462 31.9545 108.504C31.1781 101.1 30.0545 93.7335 29.0827 86.3827C23.9145 88.3751 22.8672 91.4934 23.6631 103.957C22.1756 102.766 20.9969 102.078 20.1439 101.102C6.93798 86.0019 1.15384 55.564 20.5363 34.6712C28.5872 25.9929 37.1326 18.0475 47.719 12.603C54.8789 8.92089 62.3525 6.33905 70.564 6.54149C71.7166 6.56999 72.8871 5.94529 74.3498 5.53969C72.2498 0.806239 68.526 0.111317 64.8082 0.760104C59.8326 1.62832 54.7558 2.71889 50.1317 4.68703C32.0548 12.3804 17.9725 25.0009 7.9662 41.8311C-2.06857 58.7094 1.18361 84.9261 14.5547 100.361C16.3819 102.47 18.3288 104.475 20.8667 107.23C13.3555 107.256 7.91408 102.014 1.32446 102.594C1.03482 103.12 0.745126 103.646 0.455307 104.173Z" fill="black"/>
</svg>
