<svg width="135" height="95" viewBox="0 0 135 95" fill="none" xmlns="http://www.w3.org/2000/svg">
<g clip-path="url(#clip0_367_744)">
<path d="M24.6199 43.2023V47.1545H33.6663C33.4262 49.3409 32.7056 51.0227 31.5848 52.1159C30.3039 53.4614 28.2224 54.975 24.6199 54.975C19.0959 54.975 14.7728 50.2659 14.7728 44.4636C14.7728 38.6614 19.0159 33.9523 24.6199 33.9523C27.582 33.9523 29.8236 35.2136 31.4247 36.8114L34.0666 34.0364C31.825 31.7659 28.7828 30 24.6199 30C17.0144 30 10.6099 36.475 10.6099 44.4636C10.6099 52.4523 17.0144 58.9273 24.6199 58.9273C28.7028 58.9273 31.825 57.4977 34.2267 54.8909C36.7085 52.2841 37.5091 48.5841 37.5091 45.6409C37.5091 44.7159 37.429 43.875 37.349 43.2023H24.6199Z" fill="#4285F4"/>
<path d="M48.7171 39.9227C43.8336 39.9227 39.7507 43.875 39.7507 49.2568C39.7507 54.6386 43.7536 58.5909 48.7171 58.5909C53.6807 58.5909 57.6835 54.7227 57.6835 49.3409C57.6835 43.875 53.6807 39.9227 48.7171 39.9227ZM48.7171 54.975C45.9952 54.975 43.6735 52.6205 43.6735 49.3409C43.6735 45.9773 45.9952 43.7068 48.7171 43.7068C51.4391 43.7068 53.7607 45.9773 53.7607 49.3409C53.7607 52.6205 51.4391 54.975 48.7171 54.975Z" fill="#EA4335"/>
<path d="M92.5083 42.025H92.3481C91.4675 40.9318 89.7863 39.9227 87.6248 39.9227C83.1416 39.9227 79.2988 43.9591 79.2988 49.2568C79.2988 54.4705 83.1416 58.5909 87.6248 58.5909C89.7863 58.5909 91.4675 57.5818 92.3481 56.4886H92.5083V57.8341C92.5083 61.3659 90.6669 63.3 87.7849 63.3C85.3832 63.3 83.9421 61.5341 83.3017 59.9364L79.9393 61.45C80.9 63.8886 83.5419 67 87.8649 67C92.4282 67 96.351 64.1409 96.351 57.2455V40.4273H92.6684V42.025H92.5083ZM88.0251 54.975C85.3031 54.975 83.3017 52.5364 83.3017 49.3409C83.3017 46.0614 85.3832 43.7068 88.0251 43.7068C90.6669 43.7068 92.7484 46.1455 92.7484 49.425C92.8285 52.6205 90.747 54.975 88.0251 54.975Z" fill="#4285F4"/>
<path d="M68.6512 39.9227C63.7677 39.9227 59.6848 43.875 59.6848 49.2568C59.6848 54.6386 63.6877 58.5909 68.6512 58.5909C73.6148 58.5909 77.6176 54.7227 77.6176 49.3409C77.6176 43.875 73.6148 39.9227 68.6512 39.9227ZM68.6512 54.975C65.9293 54.975 63.6076 52.6205 63.6076 49.3409C63.6076 45.9773 65.9293 43.7068 68.6512 43.7068C71.3732 43.7068 73.6948 45.9773 73.6948 49.3409C73.6948 52.6205 71.3732 54.975 68.6512 54.975Z" fill="#FBBC05"/>
<path d="M99.3132 30.4205H103.156V58.675H99.3132V30.4205Z" fill="#34A853"/>
<path d="M115.005 54.975C113.003 54.975 111.642 54.05 110.681 52.1159L122.61 46.9864L122.21 45.8932C121.489 43.7909 119.168 39.9227 114.604 39.9227C110.041 39.9227 106.198 43.7068 106.198 49.2568C106.198 54.4705 109.961 58.5909 115.005 58.5909C119.087 58.5909 121.409 55.9841 122.45 54.4705L119.408 52.3682C118.367 53.9659 117.006 54.975 115.005 54.975ZM114.764 43.4545C116.366 43.4545 117.726 44.2955 118.127 45.4727L110.121 49.0045C110.041 45.1364 112.763 43.4545 114.764 43.4545Z" fill="#EA4335"/>
</g>
<defs>
<clipPath id="clip0_367_744">
<rect width="112" height="37" fill="white" transform="translate(10.6099 30)"/>
</clipPath>
</defs>
</svg>
