<?xml version="1.0" encoding="UTF-8"?>
<svg version="1.1" xmlns="http://www.w3.org/2000/svg" width="74" height="100">
<path d="M0 0 C5.25270679 3.84037678 9.71819611 9.06525446 11.12109375 15.55078125 C12.11204671 24.57946379 11.5816991 32.08199359 6.12109375 39.55078125 C1.3614144 44.87574318 -3.96125952 48.12079563 -11.08203125 48.90234375 C-20.05640794 49.27141985 -26.91060267 47.99166407 -33.71875 41.90625 C-40.17932979 34.9086049 -41.51842064 28.44623959 -41.2890625 19.0625 C-40.47878497 12.12498094 -37.61906311 6.83585271 -32.50390625 2.11328125 C-22.84679172 -5.15529322 -10.64648407 -6.20607856 0 0 Z " fill="#0072E6" transform="translate(62.87890625,3.44921875)"/>
<path d="M0 0 C4.88006234 2.62528299 8.1174457 6.04374335 9.86328125 11.28125 C10.5609433 18.463738 10.25864329 23.46036514 5.86328125 29.28125 C0.68922816 34.07671383 -3.49885434 34.63483707 -10.34375 34.5625 C-15.70872664 34.0222506 -18.84963691 31.66994356 -22.51171875 27.71875 C-25.91114242 22.61961449 -25.73412558 17.21383176 -25.13671875 11.28125 C-23.49502873 6.40079107 -20.38748178 3.11509202 -16.13671875 0.28125 C-11.04065361 -1.41743838 -5.14382507 -1.73028119 0 0 Z " fill="#0072E5" transform="translate(25.13671875,49.71875)"/>
<path d="M0 0 C3.07469523 1.70251719 5.40613254 3.81226508 7 7 C7.53118173 10.79415519 7.85089348 14.46331178 5.953125 17.890625 C3.63400553 20.70085213 1.72015775 22.75917792 -1.953125 23.2734375 C-6.24672199 23.46329043 -9.09582964 23.4342668 -12.5 20.625 C-16.13542732 16.80780131 -16.39236502 14.44157848 -16.359375 9.328125 C-15.75455722 5.40995764 -13.83123243 3.69641184 -11 1 C-7.51556578 -0.74221711 -3.80112955 -0.58675154 0 0 Z " fill="#0072E6" transform="translate(63,77)"/>
</svg>
