<svg width="184" height="11" viewBox="0 0 184 11" fill="none" xmlns="http://www.w3.org/2000/svg">
<path id="Vector" d="M103.594 0.2453C100.249 0.403716 87.2768 0.720548 74.835 0.958171C42.3232 1.55223 28.6169 2.06708 17.5212 2.97797C8.87318 3.69084 0.673848 4.72054 0.225128 5.15619C0.143543 5.2354 0.0619574 6.22549 0.0211647 7.3344C-0.0604207 9.11658 0.0619575 9.43341 0.959397 10.0671C1.5305 10.4631 2.30556 10.8592 2.6319 10.978C3.203 11.176 25.3127 9.98787 30.5749 9.47302C32.9001 9.275 104.491 8.40371 121.951 8.36411C128.233 8.36411 142.836 8.60173 154.381 8.91856C165.925 9.23539 176.368 9.43341 177.551 9.39381C180.488 9.3146 183.099 7.92846 183.221 6.42351C183.262 5.51262 183.14 5.35421 182.201 5.3146C181.182 5.275 181.182 5.2354 182.446 4.95817C184.2 4.56213 184.404 4.3245 183.384 3.77005C182.405 3.2552 182.242 2.58193 183.14 2.58193C183.466 2.58193 183.752 2.38391 183.752 2.18589C183.752 1.94827 183.548 1.78985 183.262 1.78985C183.017 1.78985 181.957 1.39381 180.937 0.918567L179.06 0.0472803L144.387 0.00767517C125.336 -0.031929 106.98 0.0868845 103.594 0.2453ZM131.741 1.82946C131.986 1.98787 134.433 2.14629 137.248 2.14629C140.063 2.18589 145.366 2.34431 149.078 2.54233C154.993 2.85916 154.34 2.89876 143.775 2.74035C137.166 2.66114 126.356 2.58193 119.748 2.58193C113.139 2.58193 107.836 2.50272 107.918 2.42352C108.04 2.3047 112.568 2.18589 117.994 2.14629C123.419 2.06708 128.07 1.90867 128.355 1.71065C128.967 1.35421 131.129 1.39381 131.741 1.82946ZM173.839 2.46312C173.023 2.54233 171.718 2.54233 170.983 2.46312C170.29 2.38391 170.983 2.3047 172.534 2.3047C174.124 2.3047 174.696 2.38391 173.839 2.46312ZM84.1765 2.74035C84.095 2.81956 74.6718 2.93837 63.2091 3.01758C51.7871 3.13639 45.2603 3.09678 48.7277 2.97797C56.0296 2.70074 84.4213 2.50272 84.1765 2.74035ZM104.491 2.81956C104.369 2.93837 104.002 2.97797 103.716 2.85916C103.39 2.74035 103.512 2.62154 103.961 2.62154C104.41 2.58193 104.654 2.70074 104.491 2.81956ZM176.613 5.39381C176.898 5.67104 175.715 5.75025 172.941 5.71064C170.698 5.63144 162.703 5.63144 155.197 5.67104C147.691 5.71064 140.511 5.67104 139.288 5.59183C135.657 5.3146 116.036 5.275 101.35 5.47302C86.257 5.71064 85.3187 5.51262 99.1067 4.99777C111.467 4.52253 176.083 4.87896 176.613 5.39381ZM78.0984 5.78985C65.779 6.10668 53.0925 6.10668 56.0704 5.75025C57.2941 5.59183 64.9224 5.47302 72.9993 5.47302C87.3992 5.51262 87.5215 5.51262 78.0984 5.78985ZM131.945 6.14629C131.945 6.34431 131.659 6.42351 131.333 6.3047C131.007 6.14629 130.721 5.98787 130.721 5.90866C130.721 5.82945 131.007 5.75025 131.333 5.75025C131.659 5.75025 131.945 5.90866 131.945 6.14629ZM133.169 6.14629C133.169 6.34431 132.965 6.54233 132.72 6.54233C132.516 6.54233 132.434 6.34431 132.557 6.14629C132.679 5.90866 132.883 5.75025 133.005 5.75025C133.087 5.75025 133.169 5.90866 133.169 6.14629ZM136.228 6.14629C136.35 6.34431 136.187 6.54233 135.861 6.54233C135.494 6.54233 135.208 6.34431 135.208 6.14629C135.208 5.90866 135.371 5.75025 135.575 5.75025C135.82 5.75025 136.106 5.90866 136.228 6.14629ZM174.981 6.54233C175.715 6.85916 175.715 6.89876 174.777 6.85916C174.206 6.85916 173.227 6.70074 172.534 6.54233L171.31 6.22549H172.738C173.513 6.22549 174.532 6.34431 174.981 6.54233ZM80.6276 6.81955C74.5087 6.89876 64.596 6.89876 58.5995 6.81955C52.603 6.77995 57.6205 6.74035 69.7359 6.74035C81.8514 6.74035 86.7465 6.77995 80.6276 6.81955ZM3.85568 8.12648C3.85568 8.3245 3.24379 8.52252 2.55031 8.48292C1.40812 8.48292 1.32653 8.40371 2.02001 8.12648C3.1622 7.65124 3.85568 7.65124 3.85568 8.12648ZM10.3417 7.88886C10.2601 7.96807 8.7916 8.12648 7.1191 8.24529C5.12025 8.40371 4.26361 8.36411 4.67153 8.12648C5.24263 7.77005 10.7496 7.53242 10.3417 7.88886ZM169.8 8.79975C169.189 8.87896 168.087 8.87896 167.353 8.79975C166.619 8.72054 167.108 8.64133 168.454 8.64133C169.8 8.64133 170.412 8.72054 169.8 8.79975Z" fill="#0073E6"/>
</svg>
