<svg width="75" height="115" viewBox="0 0 75 115" fill="none" xmlns="http://www.w3.org/2000/svg">
<path d="M74.1726 103.721C73.2513 104.739 72.5188 106.276 71.3777 106.691C64.1395 109.326 56.9063 112.068 49.4786 114.057C44.5494 115.377 42.1535 113.01 42.6735 108.052C43.4498 100.648 44.5734 93.2814 45.5453 85.9305C50.7135 87.923 51.7608 91.0412 50.9648 103.504C52.4523 102.314 53.631 101.626 54.484 100.65C67.6899 85.5498 73.4741 55.1119 54.0917 34.2191C46.0407 25.5408 37.4953 17.5954 26.9089 12.1509C19.7491 8.46874 12.2754 5.88691 4.06394 6.08934C2.91133 6.11784 1.74081 5.49313 0.27814 5.08755C2.37815 0.35409 6.10192 -0.34083 9.81972 0.307955C14.7953 1.17618 19.8721 2.26674 24.4963 4.23488C42.5732 11.9282 56.6555 24.5488 66.6617 41.3789C76.6965 58.2572 73.4443 84.4739 60.0732 99.9086C58.246 102.018 56.2991 104.023 53.7612 106.778C61.2725 106.804 66.7139 101.562 73.3035 102.142C73.5931 102.668 73.8828 103.194 74.1726 103.721Z" fill="black"/>
</svg>
