<?xml version="1.0" standalone="no"?>
<!DOCTYPE svg PUBLIC "-//W3C//DTD SVG 20010904//EN"
 "http://www.w3.org/TR/2001/REC-SVG-20010904/DTD/svg10.dtd">
<svg version="1.0" xmlns="http://www.w3.org/2000/svg"
 width="512.000000pt" height="512.000000pt" viewBox="0 0 512.000000 512.000000"
 preserveAspectRatio="xMidYMid meet">

<g transform="translate(0.000000,512.000000) scale(0.100000,-0.100000)"
fill="#000000" stroke="none">
<path d="M2027 4845 c-247 -50 -470 -234 -574 -475 -88 -206 -81 -465 18 -663
69 -137 185 -267 295 -329 30 -16 54 -31 54 -33 0 -1 -39 -16 -87 -34 -181
-64 -361 -182 -505 -328 -183 -186 -289 -381 -360 -663 -21 -82 -22 -109 -25
-851 -4 -749 -4 -766 16 -790 l19 -24 625 -3 625 -3 4 -123 c3 -120 4 -126 34
-168 19 -27 50 -53 84 -71 l54 -27 889 0 c672 0 900 3 931 12 54 16 128 90
144 144 17 58 18 2258 0 2315 -15 52 -73 117 -122 140 -36 16 -69 19 -246 19
l-206 0 -12 59 c-14 68 -72 163 -127 208 -161 133 -412 160 -603 64 l-57 -29
-35 24 c-42 27 -241 114 -263 114 -35 0 -23 19 33 54 115 71 240 216 296 343
50 113 68 199 67 328 -1 318 -162 578 -449 724 -148 75 -343 100 -517 66z
m378 -159 c106 -36 181 -83 258 -161 77 -79 129 -164 164 -270 22 -68 26 -98
26 -200 1 -105 -3 -130 -27 -200 -167 -485 -769 -619 -1116 -249 -73 79 -112
144 -147 249 -22 68 -27 98 -27 200 -1 132 12 190 66 301 67 137 199 259 341
314 115 45 141 49 267 46 94 -2 130 -8 195 -30z m-12 -1451 c115 -20 203 -48
308 -97 l87 -40 -34 -65 c-19 -35 -34 -75 -34 -88 0 -56 4 -55 -209 -55 -108
0 -213 -5 -235 -11 -22 -6 -56 -29 -81 -54 -79 -78 -75 -26 -75 -1087 l0 -938
-570 0 -570 0 0 668 c0 696 3 758 46 902 133 453 498 778 969 865 97 18 293
18 398 0z m970 -125 c158 -62 231 -215 158 -334 l-23 -36 -296 2 -296 3 -22
32 c-85 127 12 293 204 349 68 20 203 12 275 -16z m-607 -391 c8 -17 34 -51
56 -75 l41 -44 350 0 350 0 37 40 c20 22 45 56 56 75 l19 35 211 0 212 0 26
-31 26 -31 0 -1113 0 -1113 -26 -31 -26 -31 -880 0 c-611 0 -885 3 -900 11
-49 26 -48 2 -48 1164 0 1156 -1 1136 47 1164 11 6 97 11 225 11 l207 0 17
-31z"/>
<path d="M3095 2500 c-142 -26 -267 -87 -366 -178 -156 -144 -229 -312 -229
-524 1 -267 142 -497 382 -623 219 -115 503 -99 713 41 l56 37 98 -97 c82 -80
103 -96 129 -96 19 0 39 8 52 22 38 41 27 64 -80 173 l-100 101 26 35 c39 52
80 136 105 219 30 96 32 270 5 370 -81 299 -343 511 -650 525 -50 2 -113 0
-141 -5z m226 -144 c217 -46 388 -221 435 -446 30 -142 0 -294 -83 -419 -26
-39 -51 -71 -55 -71 -4 0 -8 13 -8 28 0 96 -66 221 -152 289 l-57 46 19 25
c35 44 53 123 41 187 -18 98 -60 153 -147 196 -57 28 -71 31 -127 27 -108 -9
-194 -73 -232 -171 -25 -66 -17 -160 20 -223 26 -45 27 -47 9 -57 -46 -26
-117 -105 -144 -161 -17 -34 -35 -90 -42 -126 l-11 -64 -29 34 c-38 45 -85
141 -103 210 -22 83 -19 224 6 306 86 283 371 451 660 390z m-50 -299 c69 -46
73 -151 8 -198 -87 -62 -198 -5 -199 101 0 42 21 75 64 101 41 25 86 24 127
-4z m34 -386 c56 -25 101 -66 133 -120 25 -42 27 -55 27 -150 l0 -105 -60 -24
c-48 -20 -83 -26 -172 -30 -118 -5 -170 3 -255 40 l-48 20 0 77 c0 94 11 136
53 198 65 97 218 142 322 94z"/>
<path d="M2643 920 c-46 -19 -55 -69 -18 -105 l24 -25 556 0 c542 0 555 0 575
20 29 29 26 74 -6 99 -26 21 -35 21 -568 20 -297 0 -551 -4 -563 -9z"/>
<path d="M2621 634 c-26 -33 -26 -55 -2 -85 l19 -24 560 0 c537 0 561 1 581
19 27 24 27 70 1 96 -20 20 -33 20 -579 20 l-560 0 -20 -26z"/>
</g>
</svg>
