<?xml version="1.0" standalone="no"?>
<!DOCTYPE svg PUBLIC "-//W3C//DTD SVG 20010904//EN"
 "http://www.w3.org/TR/2001/REC-SVG-20010904/DTD/svg10.dtd">
<svg version="1.0" xmlns="http://www.w3.org/2000/svg"
 width="512.000000pt" height="512.000000pt" viewBox="0 0 512.000000 512.000000"
 preserveAspectRatio="xMidYMid meet">

<g transform="translate(0.000000,512.000000) scale(0.100000,-0.100000)"
fill="#000000" stroke="none">
<path d="M2500 4858 c-69 -9 -1272 -527 -1309 -563 -37 -37 -18 -68 64 -105
78 -35 84 -56 30 -106 -42 -38 -44 -62 -9 -104 l26 -31 -28 -403 -28 -403 34
-104 c19 -56 40 -104 45 -106 17 -5 75 186 75 248 0 29 -12 215 -26 412 l-26
357 26 31 c35 41 33 63 -9 106 -36 37 -45 63 -22 62 6 0 75 -28 152 -62 l140
-63 3 -184 c2 -174 1 -191 -25 -290 -34 -133 -38 -324 -9 -460 91 -423 405
-777 770 -870 167 -42 382 -18 538 61 291 147 509 432 595 779 22 88 27 128
27 245 0 120 -4 155 -27 245 -26 99 -27 116 -25 290 l3 185 220 95 c175 77
223 102 235 123 14 25 13 28 -10 51 -15 15 -274 132 -640 291 -655 283 -671
289 -790 273z"/>
<path d="M1680 2151 c-242 -71 -420 -179 -593 -360 -219 -231 -349 -540 -351
-836 -1 -101 1 -115 27 -167 37 -74 138 -169 248 -230 630 -349 1999 -406
2826 -117 279 98 465 224 526 357 54 117 -4 464 -114 684 -149 298 -440 551
-752 652 -129 42 -194 53 -220 36 -159 -102 -242 -141 -392 -181 -112 -31
-448 -39 -578 -15 -158 30 -278 77 -410 162 -39 26 -79 44 -95 43 -15 0 -70
-13 -122 -28z"/>
</g>
</svg>
