<svg width="53" height="53" viewBox="0 0 53 53" fill="none" xmlns="http://www.w3.org/2000/svg">
<g clip-path="url(#clip0_2143_2977)">
<g clip-path="url(#clip1_2143_2977)">
<g clip-path="url(#clip2_2143_2977)">
<path d="M42.9087 0.972717H9.94671C4.82004 0.972717 0.664062 5.1287 0.664062 10.2554V42.7446C0.664062 47.8713 4.82004 52.0273 9.94671 52.0273H42.9087C48.0354 52.0273 52.1913 47.8713 52.1913 42.7446V10.2554C52.1913 5.1287 48.0354 0.972717 42.9087 0.972717Z" fill="#FB464D" fill-opacity="0.1"/>
<path d="M30.6625 39.4166H22.325V26.4999C22.325 25.0791 23.45 23.9166 24.825 23.9166H28.1625C29.55 23.9166 30.6625 25.0791 30.6625 26.4999V39.4166ZM30.6625 39.4166V32.9583H36.5C37.875 32.9583 39 34.1208 39 35.5416V39.4166H30.6625ZM22.3375 29.0833H16.5C15.125 29.0833 14 30.2458 14 31.6666V39.4166H22.3375V29.0833ZM27.15 13.6737L27.8125 15.0429C27.9 15.2366 28.1375 15.4174 28.3375 15.4433L29.5375 15.65C30.3 15.7791 30.4875 16.3603 29.9375 16.9158L29 17.8845C28.8375 18.0524 28.75 18.3624 28.8 18.582L29.0625 19.7704C29.275 20.7133 28.7875 21.075 27.9875 20.5841L26.8625 19.8995C26.6625 19.7704 26.325 19.7704 26.125 19.8995L25 20.5841C24.2 21.075 23.7125 20.7133 23.925 19.7704L24.1875 18.582C24.2375 18.3624 24.15 18.0395 23.9875 17.8845L23.0625 16.9287C22.5125 16.3604 22.6875 15.792 23.4625 15.6628L24.6625 15.4562C24.8625 15.4175 25.1 15.2366 25.1875 15.0558L25.85 13.6866C26.2125 12.9374 26.7875 12.9375 27.15 13.6737Z" stroke="#E82B36" stroke-width="1.5" stroke-linecap="round" stroke-linejoin="round"/>
</g>
</g>
</g>
<defs>
<clipPath id="clip0_2143_2977">
<rect width="52" height="52" fill="white" transform="translate(0.5 0.5)"/>
</clipPath>
<clipPath id="clip1_2143_2977">
<rect width="52" height="52" fill="white" transform="translate(0.5 0.5)"/>
</clipPath>
<clipPath id="clip2_2143_2977">
<rect width="52" height="51.0545" fill="white" transform="translate(0.5 0.972717)"/>
</clipPath>
</defs>
</svg>
