<svg width="52" height="52" viewBox="0 0 52 52" fill="none" xmlns="http://www.w3.org/2000/svg">
<g clip-path="url(#clip0_2143_3045)">
<g clip-path="url(#clip1_2143_3045)">
<mask id="mask0_2143_3045" style="mask-type:luminance" maskUnits="userSpaceOnUse" x="0" y="1" width="52" height="50">
<path d="M51.1098 1.36841H0.751953V50.6316H51.1098V1.36841Z" fill="white"/>
</mask>
<g mask="url(#mask0_2143_3045)">
<path d="M41.5144 1.36841H9.70889C4.76211 1.36841 0.751953 5.37857 0.751953 10.3253V41.6746C0.751953 46.6215 4.76211 50.6316 9.70889 50.6316H41.5144C46.4611 50.6316 50.4713 46.6215 50.4713 41.6746V10.3253C50.4713 5.37857 46.4611 1.36841 41.5144 1.36841Z" fill="#F3A75A" fill-opacity="0.1"/>
<path d="M36.7631 16.5624C37.0444 16.5624 37.2725 16.3266 37.2725 16.0355C37.2725 15.7445 37.0444 15.5086 36.7631 15.5086C36.4819 15.5086 36.2539 15.7445 36.2539 16.0355C36.2539 16.3266 36.4819 16.5624 36.7631 16.5624Z" fill="#F3A75A"/>
<path d="M34.7496 16.5624C35.0308 16.5624 35.2588 16.3266 35.2588 16.0355C35.2588 15.7445 35.0308 15.5086 34.7496 15.5086C34.4683 15.5086 34.2402 15.7445 34.2402 16.0355C34.2402 16.3266 34.4683 16.5624 34.7496 16.5624Z" fill="#F3A75A"/>
<path d="M32.7359 16.5624C33.0171 16.5624 33.2452 16.3266 33.2452 16.0355C33.2452 15.7445 33.0171 15.5086 32.7359 15.5086C32.4546 15.5086 32.2266 15.7445 32.2266 16.0355C32.2266 16.3266 32.4546 16.5624 32.7359 16.5624Z" fill="#F3A75A"/>
<path d="M36.3647 12.3158H33.1375C32.1791 12.3169 31.2602 12.7113 30.5825 13.4124C29.9048 14.1135 29.5236 15.0642 29.5225 16.0557V19.3576C29.5225 19.4151 29.5335 19.472 29.5548 19.5252C29.576 19.5783 29.6071 19.6265 29.6465 19.6673C29.6858 19.708 29.7325 19.7403 29.7838 19.7623C29.8352 19.7843 29.8903 19.7955 29.9459 19.7955H30.4595V21.4584C30.4595 21.5432 30.4833 21.6263 30.5281 21.6974C30.5729 21.7685 30.6366 21.8246 30.7117 21.8589C30.7868 21.8933 30.8698 21.9043 30.9508 21.8906C31.0317 21.877 31.1072 21.8394 31.1679 21.7822L33.2764 19.7955H36.3647C37.3235 19.7955 38.243 19.4015 38.921 18.7001C39.5989 17.9988 39.9798 17.0475 39.9798 16.0557C39.9798 15.0638 39.5989 14.1125 38.921 13.4112C38.243 12.7098 37.3235 12.3158 36.3647 12.3158ZM36.3647 18.9195H33.1126C33.0071 18.9196 32.9055 18.9603 32.8275 19.0337L31.3062 20.4671V19.3576C31.3062 19.3 31.2952 19.2431 31.2739 19.19C31.2526 19.1368 31.2214 19.0886 31.1822 19.0479C31.1429 19.0072 31.0961 18.9749 31.0449 18.9529C30.9935 18.9309 30.9384 18.9195 30.8828 18.9195H30.3692V16.0557C30.3701 15.2964 30.6619 14.5685 31.1809 14.0315C31.6999 13.4946 32.4035 13.1926 33.1375 13.1918H36.3647C36.7285 13.1914 37.0887 13.2653 37.4248 13.4091C37.761 13.5528 38.0665 13.7637 38.3239 14.0297C38.5811 14.2956 38.7852 14.6115 38.9245 14.9591C39.0638 15.3068 39.1354 15.6794 39.1354 16.0557C39.1354 16.432 39.0638 16.8046 38.9245 17.1523C38.7852 17.4999 38.5811 17.8157 38.3239 18.0817C38.0665 18.3476 37.761 18.5586 37.4248 18.7023C37.0887 18.8461 36.7285 18.9199 36.3647 18.9195Z" fill="#F3A75A"/>
<path d="M32.0089 27.1766H14.1312C14.0388 27.1766 13.9477 27.1984 13.8646 27.2403C13.7817 27.2822 13.7091 27.343 13.6521 27.4184C13.5953 27.4937 13.5558 27.5814 13.5367 27.6749C13.5175 27.7683 13.5191 27.8651 13.5417 27.9578L14.9201 33.6623H16.174V40.3792C16.174 40.4368 16.1961 40.4921 16.2354 40.5329C16.2749 40.5736 16.3283 40.5965 16.384 40.5965H29.756C29.8117 40.5965 29.8652 40.5736 29.9046 40.5329C29.9439 40.4921 29.9661 40.4368 29.9661 40.3792V33.6623H31.2199L32.5985 27.9578C32.6209 27.8651 32.6226 27.7683 32.6034 27.6749C32.5842 27.5814 32.5447 27.4937 32.4878 27.4184C32.4311 27.343 32.3584 27.2822 32.2754 27.2403C32.1923 27.1984 32.1012 27.1766 32.0089 27.1766Z" fill="#F3A75A"/>
<path d="M24.3656 20.7642L23.6221 21.7903L24.3191 25.9782H29.5118C29.4931 24.8272 29.4096 24.479 29.2621 23.338C29.2269 23.1265 29.1442 22.9265 29.0206 22.7542C28.8969 22.5819 28.7359 22.4421 28.5502 22.346C27.3123 21.7076 24.5954 20.7642 24.5954 20.7642H24.3656Z" fill="#F3A75A"/>
<path d="M20.6633 17.3413C20.7719 17.9188 21.0713 18.4394 21.5102 18.8136C21.949 19.1878 22.5002 19.3925 23.0689 19.3925C23.6376 19.3925 24.1888 19.1878 24.6277 18.8136C25.0666 18.4394 25.366 17.9188 25.4746 17.3413L25.8487 15.3464C25.8983 14.9688 25.8692 14.5845 25.7634 14.2195C25.6577 13.8544 25.4775 13.5171 25.2354 13.23C24.9931 12.943 24.6943 12.7128 24.3589 12.5552C24.0235 12.3974 23.6595 12.3159 23.2911 12.3158H22.8467C22.4784 12.3159 22.1143 12.3974 21.779 12.5552C21.4436 12.7128 21.1448 12.943 20.9025 13.23C20.6602 13.5171 20.4802 13.8544 20.3744 14.2195C20.2686 14.5845 20.2395 14.9688 20.2892 15.3464L20.6633 17.3413Z" fill="#F3A75A"/>
<path d="M22.5197 21.7903L21.7761 20.7642H21.5463C21.5463 20.7642 18.8294 21.7076 17.5915 22.346C17.4059 22.4421 17.2449 22.5819 17.1211 22.7542C16.9974 22.9265 16.9148 23.1265 16.8797 23.338C16.7321 24.479 16.6486 24.8272 16.6299 25.9782H21.8227L22.5197 21.7903Z" fill="#F3A75A"/>
</g>
</g>
</g>
<defs>
<clipPath id="clip0_2143_3045">
<rect width="52" height="52" fill="white"/>
</clipPath>
<clipPath id="clip1_2143_3045">
<rect width="52" height="49.2632" fill="white" transform="translate(0 1.36841)"/>
</clipPath>
</defs>
</svg>
