<svg width="52" height="52" viewBox="0 0 52 52" fill="none" xmlns="http://www.w3.org/2000/svg">
<g clip-path="url(#clip0_2143_3034)">
<g clip-path="url(#clip1_2143_3034)">
<g clip-path="url(#clip2_2143_3034)">
<path d="M42.4087 0.472717H9.44671C4.32004 0.472717 0.164062 4.6287 0.164062 9.75536V42.2446C0.164062 47.3713 4.32004 51.5273 9.44671 51.5273H42.4087C47.5354 51.5273 51.6913 47.3713 51.6913 42.2446V9.75536C51.6913 4.6287 47.5354 0.472717 42.4087 0.472717Z" fill="#0073E6" fill-opacity="0.1"/>
<path d="M36.649 36.75L33.2403 33.3412M31.4515 16.6575L31.3728 20.9212C31.3615 21.5062 31.7328 22.2825 32.2053 22.6312L34.9953 24.7462C36.7841 26.0962 36.4915 27.75 34.354 28.425L30.7203 29.5612C30.1128 29.7525 29.4716 30.4162 29.3141 31.035L28.4478 34.3425C27.7615 36.9525 26.0515 37.2112 24.634 34.9162L22.654 31.71C22.294 31.125 21.439 30.6862 20.764 30.72L17.0066 30.9112C14.3178 31.0462 13.5528 29.4937 15.3078 27.4462L17.5353 24.8587C17.9515 24.375 18.1428 23.475 17.9515 22.8675L16.8153 19.2337C16.1516 17.0962 17.3441 15.915 19.4703 16.6125L22.7891 17.7037C23.3516 17.8837 24.1953 17.76 24.6678 17.4112L28.1328 14.9137C30.0003 13.5637 31.4965 14.3512 31.4515 16.6575Z" stroke="#0073E6" stroke-width="1.5" stroke-linecap="round" stroke-linejoin="round"/>
</g>
</g>
</g>
<defs>
<clipPath id="clip0_2143_3034">
<rect width="52" height="52" fill="white"/>
</clipPath>
<clipPath id="clip1_2143_3034">
<rect width="52" height="52" fill="white"/>
</clipPath>
<clipPath id="clip2_2143_3034">
<rect width="52" height="51.0545" fill="white" transform="translate(0 0.472717)"/>
</clipPath>
</defs>
</svg>
