<svg width="53" height="53" viewBox="0 0 53 53" fill="none" xmlns="http://www.w3.org/2000/svg">
<g clip-path="url(#clip0_2143_3010)">
<g clip-path="url(#clip1_2143_3010)">
<g clip-path="url(#clip2_2143_3010)">
<path d="M42.9087 0.972717H9.94671C4.82004 0.972717 0.664062 5.1287 0.664062 10.2554V42.7446C0.664062 47.8713 4.82004 52.0273 9.94671 52.0273H42.9087C48.0354 52.0273 52.1913 47.8713 52.1913 42.7446V10.2554C52.1913 5.1287 48.0354 0.972717 42.9087 0.972717Z" fill="#E67519" fill-opacity="0.1"/>
<path d="M19.7806 32.1503L21.2579 30.3043L16.5023 26.5L21.2579 22.6958L19.7806 20.8498L13.8715 25.577C13.733 25.6877 13.6213 25.8281 13.5445 25.9879C13.4676 26.1477 13.4277 26.3227 13.4277 26.5C13.4277 26.6773 13.4676 26.8524 13.5445 27.012C13.6213 27.1718 13.733 27.3123 13.8715 27.423L19.7806 32.1503ZM30.7124 20.8498L29.2352 22.6958L33.9908 26.5L29.2352 30.3043L30.7124 32.1503L36.6215 27.423C36.7599 27.3123 36.8717 27.1718 36.9486 27.012C37.0253 26.8524 37.0652 26.6773 37.0652 26.5C37.0652 26.3227 37.0253 26.1477 36.9486 25.9879C36.8717 25.8281 36.7599 25.6877 36.6215 25.577L30.7124 20.8498ZM28.7636 16.1189L24.0363 37.3916L21.7283 36.8787L26.4555 15.606L28.7636 16.1189Z" fill="#E67519"/>
</g>
</g>
</g>
<defs>
<clipPath id="clip0_2143_3010">
<rect width="52" height="52" fill="white" transform="translate(0.5 0.5)"/>
</clipPath>
<clipPath id="clip1_2143_3010">
<rect width="52" height="52" fill="white" transform="translate(0.5 0.5)"/>
</clipPath>
<clipPath id="clip2_2143_3010">
<rect width="52" height="51.0545" fill="white" transform="translate(0.5 0.972717)"/>
</clipPath>
</defs>
</svg>
