<svg width="52" height="53" viewBox="0 0 52 53" fill="none" xmlns="http://www.w3.org/2000/svg">
<g clip-path="url(#clip0_2143_3101)">
<g clip-path="url(#clip1_2143_3101)">
<g clip-path="url(#clip2_2143_3101)">
<path d="M42.4087 0.972717H9.44671C4.32004 0.972717 0.164062 5.1287 0.164062 10.2554V42.7446C0.164062 47.8713 4.32004 52.0273 9.44671 52.0273H42.4087C47.5354 52.0273 51.6913 47.8713 51.6913 42.7446V10.2554C51.6913 5.1287 47.5354 0.972717 42.4087 0.972717Z" fill="#0073E6" fill-opacity="0.1"/>
<path d="M23.2466 26.1175C23.2466 27.2379 22.8772 28.309 22.2 29.1339C21.5024 29.9916 20.5748 30.4636 19.5858 30.4636C18.5967 30.4636 17.6692 29.9916 16.9674 29.1339C16.2944 28.309 15.9209 27.2379 15.9209 26.1175C15.9209 25.0053 16.2985 24.0778 17.0085 23.4334C17.6652 22.8425 18.5557 22.5265 19.5817 22.5265C20.6077 22.5265 21.5024 22.8384 22.1548 23.4334C22.8731 24.0737 23.2466 25.0053 23.2466 26.1175ZM34.713 24.4964C34.713 25.8056 34.278 27.0573 33.4901 28.0217C32.6775 29.019 31.594 29.5689 30.449 29.5689C29.2999 29.5689 28.2205 29.019 27.408 28.0217C26.62 27.0573 26.1849 25.8056 26.1849 24.4964C26.1849 23.1995 26.6241 22.1202 27.449 21.3733C28.2124 20.6838 29.2507 20.3185 30.449 20.3185C31.6474 20.3185 32.6857 20.6838 33.449 21.3733C34.2739 22.1202 34.713 23.1995 34.713 24.4964Z" fill="#0073E6"/>
<path d="M24.168 13.2636L26.1316 15.1462L19.2237 21.7727L14.7861 17.5182L16.7497 15.6356L19.2237 18.0075L24.168 13.2636Z" fill="#0073E6"/>
<path d="M29.8355 33.0778V39.2379H26.0065V36.8329H25.1856V39.2379H22.4893V35.6675C22.4893 35.6428 22.4893 35.6223 22.4893 35.5977C22.4893 35.5853 22.4893 35.573 22.4893 35.5648C22.4893 35.5607 22.4893 35.5607 22.4893 35.5567C22.4893 35.532 22.4893 35.5115 22.4934 35.4869C22.4934 35.4582 22.4975 35.4335 22.5017 35.4047C22.5017 35.4007 22.5017 35.3966 22.5017 35.3924C22.5057 35.3391 22.514 35.2858 22.5222 35.2365C22.5222 35.2283 22.5222 35.2201 22.5262 35.216C22.5303 35.1914 22.5345 35.1626 22.5385 35.138C22.5427 35.1093 22.5509 35.0847 22.555 35.056C22.555 35.0518 22.555 35.0477 22.5591 35.0437C22.5632 35.019 22.5714 34.9903 22.5796 34.9657C22.5878 34.9369 22.596 34.9123 22.6001 34.8836V34.8794C22.6083 34.8507 22.6165 34.8261 22.6248 34.7974C22.633 34.7686 22.6453 34.7399 22.6535 34.7113C22.6617 34.6866 22.6699 34.662 22.6822 34.6373C22.6822 34.6333 22.6822 34.6333 22.6863 34.6291C22.6986 34.6045 22.7068 34.5758 22.7191 34.5512C22.7314 34.5265 22.7438 34.4978 22.7561 34.4732C22.7684 34.4486 22.7807 34.4199 22.7931 34.3952C22.8053 34.3706 22.8176 34.3459 22.8341 34.3173C22.8464 34.2926 22.8627 34.268 22.8751 34.2433C22.8874 34.2188 22.9039 34.1941 22.9202 34.1695C22.9325 34.1531 22.9449 34.1325 22.953 34.1162C22.9695 34.0915 22.9859 34.0669 23.0023 34.0422C23.0187 34.0177 23.0393 33.9889 23.0598 33.9642C23.0803 33.9397 23.1008 33.9109 23.1213 33.8863C23.1336 33.8741 23.1418 33.8617 23.1541 33.8494C23.1665 33.8371 23.1746 33.8248 23.187 33.8124C23.1911 33.8043 23.1993 33.8001 23.2034 33.7919C23.2198 33.7755 23.2363 33.755 23.2526 33.7386C23.2568 33.7303 23.2649 33.7263 23.2691 33.7181C23.2814 33.7016 23.2978 33.6852 23.3142 33.673C23.3224 33.6647 23.3306 33.6565 23.3389 33.6483C23.3512 33.636 23.3634 33.6278 23.3717 33.6155C23.3881 33.6032 23.4004 33.5867 23.4168 33.5744C23.4373 33.5539 23.4579 33.5375 23.4825 33.517C23.5276 33.48 23.5728 33.4431 23.6179 33.4102C23.6384 33.3939 23.659 33.3774 23.6836 33.361C23.6876 33.361 23.6876 33.3569 23.6918 33.3569C23.7164 33.3405 23.7369 33.3241 23.7616 33.3076C23.7862 33.2913 23.8108 33.2748 23.8354 33.2584C23.8477 33.2502 23.86 33.242 23.8724 33.2338C23.8805 33.2297 23.8929 33.2215 23.9011 33.2173C23.9216 33.205 23.938 33.1968 23.9585 33.1845C23.975 33.1763 23.9873 33.1681 24.0037 33.16C24.0242 33.1517 24.0406 33.1394 24.0611 33.1312C24.0735 33.127 24.0816 33.1189 24.094 33.1148C24.1186 33.1025 24.1433 33.0902 24.1678 33.0819L24.2212 33.0573L28.28 31.2557C28.3047 31.2433 28.3293 31.2393 28.3539 31.2393C28.4073 31.2393 28.4606 31.2638 28.4975 31.309L29.8355 33.0778ZM38.4127 35.6633V39.2379H35.7164V36.8329H34.8956V39.2379H31.0666V33.0902L32.4414 31.3213C32.4456 31.3173 32.4496 31.309 32.4538 31.3049C32.4579 31.3008 32.4619 31.2967 32.4702 31.2926C32.4743 31.2885 32.4825 31.2844 32.4866 31.2803C32.4907 31.2762 32.4948 31.2762 32.503 31.2721C32.5071 31.268 32.5112 31.268 32.5194 31.2638C32.5236 31.2638 32.5276 31.2598 32.5317 31.2598C32.5359 31.2598 32.5399 31.2557 32.5482 31.2557C32.5522 31.2557 32.5605 31.2515 32.5687 31.2515C32.5769 31.2515 32.581 31.2515 32.5892 31.2515C32.6138 31.2515 32.6385 31.2557 32.663 31.268L36.7178 33.0737L36.7506 33.086C36.7753 33.0984 36.7999 33.1107 36.8245 33.123C36.8656 33.1435 36.9025 33.164 36.9435 33.1845C36.9682 33.1968 36.9927 33.2133 37.0215 33.2256C37.0297 33.2297 37.0379 33.2338 37.0461 33.242C37.0625 33.2502 37.0748 33.2584 37.0913 33.2708C37.1035 33.2789 37.1118 33.283 37.1241 33.2913C37.1405 33.3036 37.1569 33.3118 37.1733 33.3241C37.1733 33.3241 37.1775 33.3241 37.1775 33.3281C37.2021 33.3446 37.2226 33.361 37.2431 33.3733C37.2636 33.3897 37.2841 33.4061 37.3046 33.4184C37.3088 33.4226 37.3169 33.4267 37.3211 33.4307C37.3416 33.4472 37.3621 33.4595 37.3785 33.4759C37.3991 33.4924 37.4237 33.5129 37.4442 33.5292C37.4647 33.5498 37.4852 33.5662 37.5098 33.5867C37.5263 33.6032 37.5427 33.6195 37.5591 33.636C37.5632 33.6401 37.5715 33.6442 37.5755 33.6524C37.5878 33.6647 37.6001 33.673 37.6083 33.6852C37.6207 33.6975 37.633 33.7098 37.6453 33.7221C37.6535 33.7303 37.6576 33.7386 37.6658 33.7468C37.6823 33.7673 37.6986 33.7838 37.7151 33.8043C37.7191 33.8083 37.7233 33.8124 37.7274 33.8206C37.7396 33.8329 37.7479 33.8453 37.7602 33.8576C37.7726 33.8741 37.7848 33.8863 37.7971 33.9027C37.8505 33.9725 37.9039 34.0422 37.9531 34.1162C37.9654 34.1367 37.9777 34.1531 37.99 34.1736C37.9942 34.1818 37.9982 34.1859 38.0023 34.1941C38.0147 34.2146 38.027 34.2351 38.0393 34.2598C38.0516 34.2844 38.068 34.3091 38.0803 34.3336C38.0926 34.3583 38.105 34.3829 38.1173 34.4075C38.1173 34.4116 38.1213 34.4116 38.1213 34.4157C38.1296 34.4362 38.1418 34.4567 38.1501 34.4773C38.1624 34.506 38.1788 34.5388 38.1911 34.5675C38.1993 34.5881 38.2076 34.6045 38.2158 34.625C38.2198 34.6333 38.2239 34.6415 38.2281 34.6496C38.2363 34.6702 38.2444 34.6948 38.2527 34.7194C38.2649 34.7523 38.2732 34.781 38.2855 34.8138C38.2937 34.8384 38.3019 34.8589 38.3061 34.8836C38.3101 34.8918 38.3101 34.9041 38.3142 34.9124C38.3224 34.9329 38.3266 34.9574 38.3307 34.978C38.3347 34.9985 38.3429 35.0232 38.3471 35.0437C38.3471 35.0477 38.3512 35.056 38.3512 35.06C38.3552 35.0723 38.3552 35.0805 38.3594 35.0928C38.3635 35.1134 38.3676 35.1298 38.3717 35.1503C38.3758 35.1791 38.384 35.2078 38.3881 35.2365C38.3922 35.2653 38.3964 35.2939 38.4004 35.3227C38.4045 35.3474 38.4087 35.3719 38.4087 35.4007C38.4127 35.4335 38.4127 35.4664 38.4169 35.4992C38.4169 35.5238 38.4209 35.5443 38.4209 35.569V35.573C38.4209 35.5853 38.4209 35.5977 38.4209 35.6058C38.4127 35.6141 38.4127 35.6387 38.4127 35.6633ZM18.9722 32.5607V38.4828H12.4551V35.5485C12.4551 34.4444 13.1076 33.4472 14.1131 32.9999L17.5851 31.4609C17.8231 31.3541 18.1022 31.4239 18.2581 31.6332L18.9722 32.5607Z" fill="#0073E6"/>
<path d="M23.7153 32.3967C23.5635 32.4705 23.4157 32.5567 23.2762 32.6511C23.1448 32.7373 23.0217 32.8358 22.9069 32.9343C22.1312 33.6156 21.6675 34.6046 21.6675 35.6676V38.4829H20.1982V32.5773L20.9369 31.6251C21.097 31.4199 21.3719 31.3502 21.61 31.4569L23.7153 32.3967Z" fill="#0073E6"/>
</g>
</g>
</g>
<defs>
<clipPath id="clip0_2143_3101">
<rect width="52" height="52" fill="white" transform="translate(0 0.5)"/>
</clipPath>
<clipPath id="clip1_2143_3101">
<rect width="52" height="52" fill="white" transform="translate(0 0.5)"/>
</clipPath>
<clipPath id="clip2_2143_3101">
<rect width="52" height="51.0545" fill="white" transform="translate(0 0.972717)"/>
</clipPath>
</defs>
</svg>
