<svg width="52" height="53" viewBox="0 0 52 53" fill="none" xmlns="http://www.w3.org/2000/svg">
<g clip-path="url(#clip0_2143_3086)">
<g clip-path="url(#clip1_2143_3086)">
<mask id="mask0_2143_3086" style="mask-type:luminance" maskUnits="userSpaceOnUse" x="0" y="1" width="52" height="51">
<path d="M51.6292 1.42859H0.37207V51.5714H51.6292V1.42859Z" fill="white"/>
</mask>
<g mask="url(#mask0_2143_3086)">
<path d="M41.8623 1.42859H9.48898C4.45384 1.42859 0.37207 5.51036 0.37207 10.5455V42.4545C0.37207 47.4897 4.45384 51.5714 9.48898 51.5714H41.8623C46.8975 51.5714 50.9792 47.4897 50.9792 42.4545V10.5455C50.9792 5.51036 46.8975 1.42859 41.8623 1.42859Z" fill="#6548EE" fill-opacity="0.1"/>
<path d="M36.6827 15.5153L13.9837 28.6066C13.0973 29.1158 13.21 30.3495 14.0915 30.7216L19.2973 32.9051L33.3673 20.5089C33.6365 20.2691 34.0185 20.6363 33.7884 20.9154L21.9908 35.2844V39.2255C21.9908 40.3809 23.3866 40.8363 24.0722 39.9991L27.1819 36.2146L33.284 38.7703C33.9794 39.064 34.7727 38.6283 34.9001 37.8793L38.4262 16.7294C38.5926 15.7405 37.5299 15.0257 36.6827 15.5153Z" fill="#6548EE"/>
</g>
</g>
</g>
<defs>
<clipPath id="clip0_2143_3086">
<rect width="52" height="52" fill="white" transform="translate(0 0.5)"/>
</clipPath>
<clipPath id="clip1_2143_3086">
<rect width="52" height="50.1429" fill="white" transform="translate(0 1.42859)"/>
</clipPath>
</defs>
</svg>
