<svg width="52" height="53" viewBox="0 0 52 53" fill="none" xmlns="http://www.w3.org/2000/svg">
<g clip-path="url(#clip0_2143_3070)">
<g clip-path="url(#clip1_2143_3070)">
<mask id="mask0_2143_3070" style="mask-type:luminance" maskUnits="userSpaceOnUse" x="0" y="1" width="52" height="51">
<path d="M51.6292 1.42859H0.37207V51.5714H51.6292V1.42859Z" fill="white"/>
</mask>
<g mask="url(#mask0_2143_3070)">
<path d="M41.4903 1.00012H9.11691C4.08177 1.00012 0 5.08189 0 10.117V42.0261C0 47.0613 4.08177 51.143 9.11691 51.143H41.4903C46.5254 51.143 50.6072 47.0613 50.6072 42.0261V10.117C50.6072 5.08189 46.5254 1.00012 41.4903 1.00012Z" fill="#E5F7EB"/>
</g>
<path d="M15.833 27.7501V32.2501C15.833 33.4928 16.915 34.5001 18.2497 34.5001H32.7497C34.0844 34.5001 35.1663 33.4928 35.1663 32.2501V25.5001C35.1663 26.7428 34.0844 27.7501 32.7497 27.7501H15.833Z" fill="#009F51" fill-opacity="0.1"/>
<path d="M25.4997 27.7501V25.5001M25.4997 27.7501V30.0001M25.4997 27.7501H32.7497C34.0844 27.7501 35.1663 26.7428 35.1663 25.5001M25.4997 27.7501H18.2497C16.915 27.7501 15.833 26.7428 15.833 25.5001M35.1663 25.5001V32.2501C35.1663 33.4928 34.0844 34.5001 32.7497 34.5001H18.2497C16.915 34.5001 15.833 33.4928 15.833 32.2501V25.5001M35.1663 25.5001V21.0001C35.1663 19.7575 34.0844 18.7501 32.7497 18.7501H18.2497C16.915 18.7501 15.833 19.7575 15.833 21.0001V25.5001M29.1247 18.7501V17.6251C29.1247 16.3825 28.0427 15.3751 26.708 15.3751H24.2913C22.9567 15.3751 21.8747 16.3825 21.8747 17.6251V18.7501" stroke="#0073E6" stroke-width="2" stroke-linecap="round" stroke-linejoin="round"/>
</g>
</g>
<defs>
<clipPath id="clip0_2143_3070">
<rect width="52" height="52" fill="white" transform="translate(0 0.5)"/>
</clipPath>
<clipPath id="clip1_2143_3070">
<rect width="52" height="50.1429" fill="white" transform="translate(0 1.42859)"/>
</clipPath>
</defs>
</svg>
