<svg width="53" height="53" viewBox="0 0 53 53" fill="none" xmlns="http://www.w3.org/2000/svg">
<g clip-path="url(#clip0_2143_2999)">
<g clip-path="url(#clip1_2143_2999)">
<g clip-path="url(#clip2_2143_2999)">
<path d="M42.9087 0.972717H9.94671C4.82004 0.972717 0.664062 5.1287 0.664062 10.2554V42.7446C0.664062 47.8713 4.82004 52.0273 9.94671 52.0273H42.9087C48.0354 52.0273 52.1913 47.8713 52.1913 42.7446V10.2554C52.1913 5.1287 48.0354 0.972717 42.9087 0.972717Z" fill="#009F51" fill-opacity="0.1"/>
<path d="M26 25.7799V25.5437C26 24.7787 26.4725 24.3737 26.945 24.0474C27.4063 23.7324 27.8675 23.3275 27.8675 22.585C27.8675 21.55 27.035 20.7174 26 20.7174C24.965 20.7174 24.1325 21.55 24.1325 22.585M25.9949 28.4687H26.0051M31.625 33.7337H27.125L22.1187 37.0637C21.3762 37.5587 20.375 37.03 20.375 36.13V33.7337C17 33.7337 14.75 31.4837 14.75 28.1087V21.3587C14.75 17.9837 17 15.7337 20.375 15.7337H31.625C35 15.7337 37.25 17.9837 37.25 21.3587V28.1087C37.25 31.4837 35 33.7337 31.625 33.7337Z" stroke="#0073E6" stroke-width="1.5" stroke-linecap="round" stroke-linejoin="round"/>
</g>
</g>
</g>
<defs>
<clipPath id="clip0_2143_2999">
<rect width="52" height="52" fill="white" transform="translate(0.5 0.5)"/>
</clipPath>
<clipPath id="clip1_2143_2999">
<rect width="52" height="52" fill="white" transform="translate(0.5 0.5)"/>
</clipPath>
<clipPath id="clip2_2143_2999">
<rect width="52" height="51.0545" fill="white" transform="translate(0.5 0.972717)"/>
</clipPath>
</defs>
</svg>
