<svg width="52" height="52" viewBox="0 0 52 52" fill="none" xmlns="http://www.w3.org/2000/svg">
<g clip-path="url(#clip0_2143_3023)">
<g clip-path="url(#clip1_2143_3023)">
<g clip-path="url(#clip2_2143_3023)">
<path d="M42.4087 0.472717H9.44671C4.32004 0.472717 0.164062 4.6287 0.164062 9.75536V42.2446C0.164062 47.3713 4.32004 51.5273 9.44671 51.5273H42.4087C47.5354 51.5273 51.6913 47.3713 51.6913 42.2446V9.75536C51.6913 4.6287 47.5354 0.472717 42.4087 0.472717Z" fill="#EF5DA8" fill-opacity="0.1"/>
<path d="M30.9704 28.4399C32.3404 28.6699 33.8504 28.4299 34.9104 27.7199C36.3204 26.7799 36.3204 25.2399 34.9104 24.2999C33.8404 23.5899 32.3104 23.3499 30.9404 23.5899M21.0004 28.4399C19.6304 28.6699 18.1204 28.4299 17.0604 27.7199C15.6504 26.7799 15.6504 25.2399 17.0604 24.2999C18.1304 23.5899 19.6604 23.3499 21.0304 23.5899M32.0004 21.1599C31.9404 21.1499 31.8704 21.1499 31.8104 21.1599C30.4304 21.1099 29.3304 19.9799 29.3304 18.5799C29.3304 17.1499 30.4804 15.9999 31.9104 15.9999C33.3404 15.9999 34.4904 17.1599 34.4904 18.5799C34.4804 19.9799 33.3804 21.1099 32.0004 21.1599ZM19.9704 21.1599C20.0304 21.1499 20.1004 21.1499 20.1604 21.1599C21.5404 21.1099 22.6404 19.9799 22.6404 18.5799C22.6404 17.1499 21.4904 15.9999 20.0604 15.9999C18.6304 15.9999 17.4804 17.1599 17.4804 18.5799C17.4904 19.9799 18.5904 21.1099 19.9704 21.1599ZM26.0004 28.6299C25.9404 28.6199 25.8704 28.6199 25.8104 28.6299C24.4304 28.5799 23.3304 27.4499 23.3304 26.0499C23.3304 24.6199 24.4804 23.4699 25.9104 23.4699C27.3404 23.4699 28.4904 24.6299 28.4904 26.0499C28.4804 27.4499 27.3804 28.5899 26.0004 28.6299ZM23.0904 31.7799C21.6804 32.7199 21.6804 34.2599 23.0904 35.1999C24.6904 36.2699 27.3104 36.2699 28.9104 35.1999C30.3204 34.2599 30.3204 32.7199 28.9104 31.7799C27.3204 30.7199 24.6904 30.7199 23.0904 31.7799Z" stroke="#B536BC" stroke-width="1.5" stroke-linecap="round" stroke-linejoin="round"/>
</g>
</g>
</g>
<defs>
<clipPath id="clip0_2143_3023">
<rect width="52" height="52" fill="white"/>
</clipPath>
<clipPath id="clip1_2143_3023">
<rect width="52" height="52" fill="white"/>
</clipPath>
<clipPath id="clip2_2143_3023">
<rect width="52" height="51.0545" fill="white" transform="translate(0 0.472717)"/>
</clipPath>
</defs>
</svg>
