<svg width="1276" height="423" viewBox="0 0 1276 423" fill="none" xmlns="http://www.w3.org/2000/svg">
<g filter="url(#filter0_ddddii_1463_1711)">
<g clip-path="url(#clip0_1463_1711)">
<rect x="63" y="63" width="1139" height="286" rx="30" fill="url(#paint0_linear_1463_1711)"/>
<g opacity="0.5">
<path d="M1072.46 747.923C1069.92 613.65 1104.6 525.932 1139.32 469.08C1168.26 421.686 1185.5 414.975 1203.1 370.237C1241.3 273.154 1231.94 122.302 1147.05 83.3837C1105.23 64.2127 1074.04 91.1585 999.302 105.281C932.07 117.985 832.666 119.158 699.368 61.0598" stroke="white" stroke-miterlimit="10"/>
<path d="M1087.28 741.347C1079.57 612.972 1110.91 527.408 1142.43 471.936C1168.97 425.257 1183.64 416.135 1199.88 369.664C1233.94 272.176 1226.08 130.11 1145.02 89.4552C1103.27 68.5125 1070.95 91.0732 995.317 102.54C928.732 112.635 830.472 112.482 698.711 55.7088" stroke="white" stroke-miterlimit="10"/>
<path d="M1102.1 734.772C1089.23 612.296 1117.2 528.833 1145.54 474.786C1169.68 428.744 1181.81 417.349 1196.65 369.084C1226.71 271.316 1220.24 137.678 1143 95.5157C1101.27 72.7399 1067.91 91.0207 991.331 99.7903C925.433 107.332 828.28 105.796 698.059 50.3392" stroke="white" stroke-miterlimit="10"/>
<path d="M1116.91 728.196C1098.88 611.619 1123.49 530.193 1148.66 477.632C1170.42 432.175 1180.02 418.617 1193.42 368.498C1219.63 270.556 1214.44 145.011 1140.97 101.573C1099.22 76.8912 1064.93 91.0077 987.34 97.0352C922.179 102.099 826.086 99.1032 697.404 44.9808" stroke="white" stroke-miterlimit="10"/>
<path d="M1131.73 721.62C1108.52 610.934 1129.75 531.481 1151.76 480.486C1171.16 435.537 1178.26 419.911 1190.2 367.93C1212.69 269.907 1208.7 152.142 1138.94 107.648C1097.15 80.9902 1061.99 91.0653 983.356 94.2977C918.962 96.9436 823.897 92.4271 696.764 39.6293" stroke="white" stroke-miterlimit="10"/>
<path d="M1146.54 715.045C1118.18 610.266 1135.97 532.692 1154.87 483.336C1171.91 438.819 1176.56 421.268 1186.97 367.352C1205.89 269.32 1203.01 159.056 1136.92 113.713C1095.07 85.0036 1059.1 91.1864 979.368 91.5505C915.77 91.8496 821.707 85.7425 696.099 34.2749" stroke="white" stroke-miterlimit="10"/>
<path d="M1161.36 708.47C1127.82 609.594 1142.14 533.821 1157.98 486.186C1172.66 442.019 1174.91 422.645 1183.74 366.774C1199.23 268.79 1197.4 165.778 1134.89 119.779C1092.99 88.9407 1056.22 91.351 975.382 88.8026C912.596 86.8233 819.512 79.0498 695.447 28.9174" stroke="white" stroke-miterlimit="10"/>
<path d="M1176.17 701.886C1137.48 608.907 1148.24 534.853 1161.08 489.028C1173.39 445.121 1173.32 424.031 1180.52 366.189C1192.68 268.297 1191.86 172.313 1132.86 125.836C1090.91 92.7891 1053.37 91.5901 971.391 86.0477C909.44 81.8678 817.332 72.3712 694.792 23.5591" stroke="white" stroke-miterlimit="10"/>
<path d="M1190.99 695.319C1147.14 608.239 1154.25 535.813 1164.2 491.886C1174.1 448.138 1171.81 425.459 1177.29 365.619C1186.26 267.842 1186.42 178.698 1130.84 131.909C1088.87 96.5675 1050.54 91.9222 967.407 83.3087C906.29 76.9756 815.133 65.6901 694.133 18.1899" stroke="white" stroke-miterlimit="10"/>
<path d="M1205.8 688.746C1156.78 607.563 1160.15 536.684 1167.3 494.738C1174.75 451.075 1170.32 426.896 1174.06 365.044C1179.95 267.412 1181.06 184.945 1128.81 137.977C1086.86 100.269 1047.7 92.3251 963.413 80.564C903.133 72.1512 812.935 59.0059 693.477 12.846" stroke="white" stroke-miterlimit="10"/>
<path d="M1220.62 682.167C1166.44 606.874 1165.93 537.471 1170.42 497.584C1175.33 453.912 1168.93 428.324 1170.84 364.463C1173.75 266.976 1175.8 191.054 1126.79 144.039C1084.92 103.877 1044.87 92.806 959.432 77.8141C899.987 67.384 810.751 52.3186 692.832 7.48276" stroke="white" stroke-miterlimit="10"/>
<path d="M1235.44 675.591C1176.09 606.209 1171.56 538.198 1173.53 500.434C1175.8 456.679 1167.59 429.745 1167.61 363.885C1167.63 266.539 1170.63 197.056 1124.76 150.104C1083.05 107.402 1042.01 93.3689 955.446 75.0657C896.823 62.6727 808.558 45.6345 692.176 2.12658" stroke="white" stroke-miterlimit="10"/>
<path d="M1250.25 669.016C1185.74 605.533 1177.04 538.884 1176.64 503.283C1176.14 459.391 1166.32 431.178 1164.38 363.306C1161.61 266.09 1165.56 202.968 1122.74 156.168C1081.27 110.85 1039.13 94.0128 951.458 72.3191C893.645 58.0148 806.368 38.9504 691.521 -3.23172" stroke="white" stroke-miterlimit="10"/>
<path d="M1265.07 662.441C1195.39 604.855 1182.36 539.547 1179.75 506.134C1176.3 462.077 1165.12 432.589 1161.16 362.734C1155.65 265.631 1160.58 208.814 1120.71 162.236C1079.59 114.202 1036.23 94.7429 947.472 69.5761C890.445 53.4023 804.171 32.2685 690.873 -8.59102" stroke="white" stroke-miterlimit="10"/>
<path d="M1279.88 655.866C1205.04 604.18 1187.52 540.221 1182.86 508.992C1176.26 464.785 1163.98 433.992 1157.93 362.159C1149.77 265.146 1155.71 214.595 1118.69 168.306C1078.04 117.478 1033.28 95.5481 943.48 66.8359C887.219 48.8447 801.981 25.5912 690.209 -13.9361" stroke="white" stroke-miterlimit="10"/>
<path d="M1294.7 649.29C1214.69 603.493 1192.52 540.933 1185.96 511.834C1175.98 467.542 1162.89 435.359 1154.7 361.574C1143.95 264.625 1150.92 220.328 1116.66 174.363C1076.63 120.66 1030.29 96.4154 939.497 64.0773C883.97 44.3 799.793 18.896 689.56 -19.3043" stroke="white" stroke-miterlimit="10"/>
<path d="M1309.51 642.704C1224.34 602.817 1204.75 538.244 1189.07 514.673C1163.43 476.12 1161.87 436.699 1151.47 360.984C1138.17 264.07 1146.23 226.041 1114.64 180.428C1075.39 123.769 1027.24 97.3656 935.509 61.3299C880.694 39.7973 797.603 12.2113 688.913 -24.6667" stroke="white" stroke-miterlimit="10"/>
<path d="M1324.33 636.139C1234 602.149 1208.09 539.393 1192.18 517.533C1164.3 479.219 1160.91 438.035 1148.25 360.417C1132.45 263.479 1141.65 231.754 1112.61 186.493C1074.33 126.81 1024.13 98.3772 931.517 58.5841C877.379 35.3212 795.406 5.52888 688.247 -30.0186" stroke="white" stroke-miterlimit="10"/>
<path d="M1339.15 629.562C1243.65 601.473 1211.32 540.928 1195.29 520.383C1165.38 482.032 1160 439.332 1145.03 359.833C1126.77 262.857 1137.15 237.478 1110.59 192.553C1073.48 129.779 1020.98 99.4451 927.544 55.8305C874.051 30.8606 793.225 -1.1624 687.606 -35.3837" stroke="white" stroke-miterlimit="10"/>
<path d="M1353.96 622.987C1253.3 600.798 1211.65 544.916 1198.4 523.232C1172.32 480.514 1159.13 440.596 1141.8 359.256C1121.11 262.193 1132.74 243.232 1108.56 198.619C1072.84 132.705 1017.74 100.581 923.544 53.0841C870.661 26.422 791.027 -7.84806 686.94 -40.7377" stroke="white" stroke-miterlimit="10"/>
<path d="M1368.78 616.412C1262.95 600.121 1216.38 546.303 1201.51 526.083C1170.94 484.51 1158.32 441.832 1138.58 358.682C1115.49 261.493 1128.42 249.033 1106.54 204.686C1072.44 135.583 1014.46 101.752 919.564 50.3385C867.253 21.998 788.842 -14.5303 686.292 -46.0971" stroke="white" stroke-miterlimit="10"/>
<path d="M1383.59 609.836C1272.61 599.443 1221.21 547.885 1204.62 528.933C1169.53 488.834 1157.55 443.032 1135.35 358.104C1109.89 260.749 1124.18 254.893 1104.51 210.751C1072.27 138.441 1011.1 102.974 915.574 47.5902C863.813 17.5781 786.646 -21.2121 685.634 -51.454" stroke="white" stroke-miterlimit="10"/>
<path d="M-102.625 215.425C-2.38258 161.646 77.1412 153.909 133.409 158.12C180.317 161.634 192.034 172.034 232.559 168.024C320.501 159.321 430.606 93.9945 427.156 14.9667C425.456 -23.9628 393.096 -37.0664 353.581 -87.9538C318.035 -133.731 278.755 -208.215 271.066 -331.145" stroke="white" stroke-miterlimit="10"/>
<path d="M-91.9441 224.055C1.85682 168.66 78.4626 159.23 132.458 161.569C177.898 163.544 190.442 171.083 231.746 165.372C318.395 153.394 422.457 92.5941 421.797 15.786C421.459 -23.776 391.966 -39.4301 354.108 -92.0169C320.779 -138.314 282.94 -212.448 274.847 -333.707" stroke="white" stroke-miterlimit="10"/>
<path d="M-81.2648 232.683C6.09501 175.675 79.821 164.528 131.51 165.014C175.544 165.428 188.82 170.171 230.937 162.716C316.253 147.616 414.497 91.1159 416.446 16.5995C417.497 -23.657 390.833 -41.7393 354.642 -96.0844C323.503 -142.849 287.135 -216.683 278.643 -336.272" stroke="white" stroke-miterlimit="10"/>
<path d="M-70.5844 241.313C10.3342 182.692 81.2245 169.792 130.571 168.466C173.242 167.307 187.172 169.31 230.131 160.053C314.09 141.982 406.728 89.5744 411.095 17.4088C413.579 -23.5922 389.69 -43.9951 355.177 -100.158C326.191 -147.324 291.333 -220.922 282.429 -338.836" stroke="white" stroke-miterlimit="10"/>
<path d="M-59.905 249.942C14.5755 189.697 82.6698 175.007 129.616 171.905C170.994 169.168 185.517 168.485 229.314 157.406C311.9 136.502 399.134 88.0006 405.734 18.2311C409.689 -23.5692 388.512 -46.1858 355.702 -104.218C328.835 -151.74 295.52 -225.151 286.216 -341.385" stroke="white" stroke-miterlimit="10"/>
<path d="M-49.2256 258.57C18.8088 196.718 84.1617 180.168 128.668 175.349C168.811 171.003 183.839 167.729 228.504 154.748C309.716 131.15 391.726 86.3857 400.38 19.0472C405.859 -23.5907 387.303 -48.3209 356.233 -108.285C331.442 -156.114 299.713 -229.384 289.996 -343.955" stroke="white" stroke-miterlimit="10"/>
<path d="M-38.5463 267.199C23.0397 203.728 85.6926 185.253 127.721 178.794C166.689 172.805 182.163 167.018 227.693 152.094C307.54 125.918 384.492 84.7527 395.025 19.8626C402.086 -23.64 386.069 -50.425 356.765 -112.351C334.005 -160.448 303.911 -233.623 293.783 -346.516" stroke="white" stroke-miterlimit="10"/>
<path d="M-27.861 275.824C27.2882 210.742 87.2703 190.249 126.778 182.233C164.633 174.553 180.502 166.349 226.887 149.434C305.384 120.795 377.427 83.1028 389.675 20.6719C398.384 -23.7176 384.788 -52.4805 357.3 -116.424C336.522 -164.742 308.104 -237.847 297.57 -349.079" stroke="white" stroke-miterlimit="10"/>
<path d="M-17.1865 284.458C31.5215 217.764 88.8699 195.154 125.827 185.685C162.63 176.249 178.842 165.762 226.071 146.782C303.248 115.78 370.511 81.465 384.316 21.4941C394.747 -23.7983 383.443 -54.4884 357.826 -120.486C338.993 -169.007 312.291 -242.085 301.363 -351.65" stroke="white" stroke-miterlimit="10"/>
<path d="M-6.51202 293.083C35.756 224.774 90.4902 199.935 124.874 189.126C160.666 177.873 177.186 165.2 225.256 144.124C301.133 110.854 363.73 79.8367 378.956 22.3057C391.18 -23.8813 382.042 -56.4734 358.352 -124.557C341.411 -173.249 316.481 -246.323 305.137 -354.209" stroke="white" stroke-miterlimit="10"/>
<path d="M4.17321 301.716C40.0046 231.786 92.1301 204.598 123.932 192.573C158.752 179.408 175.57 164.699 224.45 141.47C299.067 106.011 357.095 78.234 373.607 23.1254C387.711 -23.9506 380.585 -58.4241 358.887 -128.621C343.789 -177.462 320.678 -250.553 308.932 -356.766" stroke="white" stroke-miterlimit="10"/>
<path d="M14.8526 310.345C44.2353 238.807 93.7575 209.125 122.985 196.018C156.849 180.833 173.982 164.239 223.639 138.816C297.035 101.233 350.573 76.6551 368.252 23.9406C384.33 -24.0005 379.058 -60.3586 359.42 -132.687C346.119 -181.667 324.87 -254.788 312.716 -359.33" stroke="white" stroke-miterlimit="10"/>
<path d="M25.5329 318.975C48.473 245.823 95.3563 213.519 122.038 199.464C154.934 182.134 172.413 163.838 222.83 136.16C295.044 96.5151 344.157 75.1152 362.897 24.7544C381.043 -24.0116 377.461 -62.2788 359.95 -136.754C348.403 -185.862 329.063 -259.021 316.502 -361.893" stroke="white" stroke-miterlimit="10"/>
<path d="M36.2123 327.604C52.7124 252.836 96.91 217.784 121.091 202.908C152.973 183.295 170.883 163.474 222.015 133.506C293.091 91.8502 337.825 73.6147 357.541 25.5734C377.868 -23.9819 375.788 -64.1896 360.478 -140.819C350.644 -190.057 333.252 -263.258 320.292 -364.452" stroke="white" stroke-miterlimit="10"/>
<path d="M46.8917 336.233C56.9491 259.851 98.3951 221.932 120.138 206.359C150.917 184.312 169.385 163.156 221.204 130.853C291.185 87.2275 331.586 72.1777 352.184 26.3916C374.801 -23.8846 374.043 -66.1002 361.002 -144.887C352.834 -194.249 337.44 -267.488 324.066 -367.017" stroke="white" stroke-miterlimit="10"/>
<path d="M57.5721 344.863C61.1929 266.859 99.7925 225.982 119.195 209.798C148.729 185.163 167.935 162.866 220.396 128.192C289.33 82.6405 325.416 70.7831 346.834 27.2022C371.856 -23.7188 372.234 -68.0186 361.543 -148.955C355.005 -198.454 341.643 -271.724 327.862 -369.58" stroke="white" stroke-miterlimit="10"/>
<path d="M68.2573 353.484C65.4309 273.874 106.541 234.16 118.255 213.237C137.413 179.012 166.529 162.61 219.593 125.528C287.515 78.0685 319.298 69.4564 341.479 28.0172C369.035 -23.4509 370.338 -69.9537 362.074 -153.022C357.134 -202.662 345.836 -275.957 331.654 -372.139" stroke="white" stroke-miterlimit="10"/>
<path d="M78.9308 362.12C69.6644 280.895 106.967 237.125 117.301 216.688C135.415 180.87 165.15 162.401 218.776 122.881C285.752 73.5297 313.221 68.2083 336.124 28.8322C366.332 -23.0776 368.378 -71.9005 362.602 -157.092C359.228 -206.89 350.025 -280.194 335.431 -374.709" stroke="white" stroke-miterlimit="10"/>
<path d="M89.6117 370.75C73.9012 287.909 107.057 240.151 116.354 220.133C133.71 182.767 163.821 162.216 217.973 120.23C284.025 69.0039 307.169 67.0283 330.778 29.6545C363.766 -22.5695 366.355 -73.8645 363.143 -161.151C361.305 -211.122 354.227 -284.423 339.229 -377.264" stroke="white" stroke-miterlimit="10"/>
<path d="M100.291 379.378C78.1389 294.925 104.177 241.938 115.407 223.576C137.538 187.417 162.535 162.053 217.16 117.571C282.342 64.4822 301.126 65.923 325.42 30.4656C361.31 -21.927 364.247 -75.8695 363.669 -165.228C363.342 -215.392 358.418 -288.663 343.008 -379.834" stroke="white" stroke-miterlimit="10"/>
<path d="M110.969 388.007C82.3765 301.94 104.959 246.044 114.459 227.024C133.992 187.921 161.29 161.92 216.347 114.917C280.697 59.9737 295.084 64.9087 320.063 31.2827C358.988 -21.1136 362.097 -77.889 364.201 -169.288C365.36 -219.67 362.611 -292.89 346.797 -382.392" stroke="white" stroke-miterlimit="10"/>
<path d="M121.65 396.637C86.6159 308.954 105.63 250.29 113.512 230.469C130.186 188.524 160.088 161.804 215.534 112.259C279.094 55.4624 289.029 63.9763 314.708 32.0952C356.769 -20.1358 359.878 -79.9499 364.732 -173.358C367.364 -223.971 366.8 -297.127 350.581 -384.958" stroke="white" stroke-miterlimit="10"/>
</g>
</g>
</g>
<defs>
<filter id="filter0_ddddii_1463_1711" x="0" y="0" width="1276" height="423" filterUnits="userSpaceOnUse" color-interpolation-filters="sRGB">
<feFlood flood-opacity="0" result="BackgroundImageFix"/>
<feColorMatrix in="SourceAlpha" type="matrix" values="0 0 0 0 0 0 0 0 0 0 0 0 0 0 0 0 0 0 127 0" result="hardAlpha"/>
<feOffset dx="21" dy="21"/>
<feGaussianBlur stdDeviation="26.5"/>
<feColorMatrix type="matrix" values="0 0 0 0 0.819608 0 0 0 0 0.819608 0 0 0 0 0.819608 0 0 0 0.9 0"/>
<feBlend mode="normal" in2="BackgroundImageFix" result="effect1_dropShadow_1463_1711"/>
<feColorMatrix in="SourceAlpha" type="matrix" values="0 0 0 0 0 0 0 0 0 0 0 0 0 0 0 0 0 0 127 0" result="hardAlpha"/>
<feOffset dx="-21" dy="-21"/>
<feGaussianBlur stdDeviation="21"/>
<feColorMatrix type="matrix" values="0 0 0 0 1 0 0 0 0 1 0 0 0 0 1 0 0 0 0.9 0"/>
<feBlend mode="normal" in2="effect1_dropShadow_1463_1711" result="effect2_dropShadow_1463_1711"/>
<feColorMatrix in="SourceAlpha" type="matrix" values="0 0 0 0 0 0 0 0 0 0 0 0 0 0 0 0 0 0 127 0" result="hardAlpha"/>
<feOffset dx="21" dy="-21"/>
<feGaussianBlur stdDeviation="21"/>
<feColorMatrix type="matrix" values="0 0 0 0 0.819608 0 0 0 0 0.819608 0 0 0 0 0.819608 0 0 0 0.2 0"/>
<feBlend mode="normal" in2="effect2_dropShadow_1463_1711" result="effect3_dropShadow_1463_1711"/>
<feColorMatrix in="SourceAlpha" type="matrix" values="0 0 0 0 0 0 0 0 0 0 0 0 0 0 0 0 0 0 127 0" result="hardAlpha"/>
<feOffset dx="-21" dy="21"/>
<feGaussianBlur stdDeviation="21"/>
<feColorMatrix type="matrix" values="0 0 0 0 0.819608 0 0 0 0 0.819608 0 0 0 0 0.819608 0 0 0 0.2 0"/>
<feBlend mode="normal" in2="effect3_dropShadow_1463_1711" result="effect4_dropShadow_1463_1711"/>
<feBlend mode="normal" in="SourceGraphic" in2="effect4_dropShadow_1463_1711" result="shape"/>
<feColorMatrix in="SourceAlpha" type="matrix" values="0 0 0 0 0 0 0 0 0 0 0 0 0 0 0 0 0 0 127 0" result="hardAlpha"/>
<feOffset dx="-1" dy="-1"/>
<feGaussianBlur stdDeviation="1"/>
<feComposite in2="hardAlpha" operator="arithmetic" k2="-1" k3="1"/>
<feColorMatrix type="matrix" values="0 0 0 0 0.819608 0 0 0 0 0.819608 0 0 0 0 0.819608 0 0 0 0.5 0"/>
<feBlend mode="normal" in2="shape" result="effect5_innerShadow_1463_1711"/>
<feColorMatrix in="SourceAlpha" type="matrix" values="0 0 0 0 0 0 0 0 0 0 0 0 0 0 0 0 0 0 127 0" result="hardAlpha"/>
<feOffset dx="1" dy="1"/>
<feGaussianBlur stdDeviation="1"/>
<feComposite in2="hardAlpha" operator="arithmetic" k2="-1" k3="1"/>
<feColorMatrix type="matrix" values="0 0 0 0 1 0 0 0 0 1 0 0 0 0 1 0 0 0 0.3 0"/>
<feBlend mode="normal" in2="effect5_innerShadow_1463_1711" result="effect6_innerShadow_1463_1711"/>
</filter>
<linearGradient id="paint0_linear_1463_1711" x1="63" y1="63" x2="198.109" y2="601.074" gradientUnits="userSpaceOnUse">
<stop offset="1" stop-color="#02386E"/>
<stop stop-color="#0073E6"/>
</linearGradient>
<clipPath id="clip0_1463_1711">
<rect x="63" y="63" width="1139" height="286" rx="30" fill="white"/>
</clipPath>
</defs>
</svg>
