<svg width="1139" height="286" viewBox="0 0 1139 286" fill="none" xmlns="http://www.w3.org/2000/svg">
<g opacity="0.5">
<path d="M1009.46 684.923C1006.92 550.65 1041.6 462.932 1076.32 406.08C1105.26 358.686 1122.5 351.975 1140.1 307.237C1178.3 210.154 1168.94 59.3019 1084.05 20.3837C1042.23 1.2127 1011.04 28.1585 936.302 42.2814C869.07 54.9847 769.666 56.1582 636.368 -1.94023" stroke="white" stroke-miterlimit="10"/>
<path d="M1024.28 678.347C1016.57 549.972 1047.91 464.408 1079.43 408.936C1105.97 362.257 1120.64 353.135 1136.88 306.664C1170.94 209.176 1163.08 67.11 1082.02 26.4552C1040.27 5.51251 1007.95 28.0732 932.317 39.5403C865.732 49.6351 767.472 49.4823 635.711 -7.2912" stroke="white" stroke-miterlimit="10"/>
<path d="M1039.1 671.772C1026.23 549.296 1054.2 465.833 1082.54 411.786C1106.68 365.744 1118.81 354.349 1133.65 306.084C1163.71 208.316 1157.24 74.6782 1080 32.5157C1038.27 9.73993 1004.91 28.0207 928.331 36.7903C862.433 44.3324 765.28 42.7957 635.059 -12.6608" stroke="white" stroke-miterlimit="10"/>
<path d="M1053.91 665.196C1035.88 548.619 1060.49 467.193 1085.66 414.632C1107.42 369.175 1117.02 355.617 1130.42 305.498C1156.63 207.556 1151.44 82.0114 1077.97 38.5733C1036.22 13.8912 1001.93 28.0077 924.34 34.0352C859.179 39.0991 763.086 36.1032 634.404 -18.0192" stroke="white" stroke-miterlimit="10"/>
<path d="M1068.73 658.62C1045.52 547.934 1066.75 468.481 1088.76 417.486C1108.16 372.537 1115.26 356.911 1127.2 304.93C1149.69 206.907 1145.7 89.142 1075.94 44.6484C1034.15 17.9902 998.991 28.0653 920.356 31.2977C855.962 33.9436 760.897 29.4271 633.764 -23.3707" stroke="white" stroke-miterlimit="10"/>
<path d="M1083.54 652.045C1055.18 547.266 1072.97 469.692 1091.87 420.336C1108.91 375.819 1113.56 358.268 1123.97 304.352C1142.89 206.32 1140.01 96.0564 1073.92 50.7129C1032.07 22.0035 996.098 28.1863 916.368 28.5505C852.77 28.8495 758.707 22.7425 633.099 -28.7251" stroke="white" stroke-miterlimit="10"/>
<path d="M1098.36 645.47C1064.82 546.594 1079.14 470.821 1094.98 423.186C1109.66 379.019 1111.91 359.645 1120.74 303.774C1136.23 205.79 1134.4 102.778 1071.89 56.7786C1029.99 25.9407 993.222 28.351 912.382 25.8026C849.596 23.8233 756.512 16.0498 632.447 -34.0826" stroke="white" stroke-miterlimit="10"/>
<path d="M1113.17 638.886C1074.48 545.907 1085.24 471.853 1098.08 426.028C1110.39 382.121 1110.32 361.031 1117.52 303.189C1129.68 205.297 1128.86 109.313 1069.86 62.8362C1027.91 29.7891 990.373 28.5901 908.391 23.0477C846.44 18.8678 754.332 9.37124 631.792 -39.4409" stroke="white" stroke-miterlimit="10"/>
<path d="M1127.99 632.319C1084.14 545.239 1091.25 472.813 1101.2 428.886C1111.1 385.138 1108.81 362.459 1114.29 302.619C1123.26 204.842 1123.42 115.698 1067.84 68.909C1025.87 33.5675 987.54 28.9222 904.407 20.3087C843.29 13.9756 752.133 2.69011 631.133 -44.8101" stroke="white" stroke-miterlimit="10"/>
<path d="M1142.8 625.746C1093.78 544.563 1097.15 473.684 1104.3 431.738C1111.75 388.075 1107.32 363.896 1111.06 302.044C1116.95 204.412 1118.06 121.945 1065.81 74.9768C1023.86 37.2694 984.699 29.3251 900.413 17.564C840.133 9.15123 749.935 -3.99414 630.477 -50.154" stroke="white" stroke-miterlimit="10"/>
<path d="M1157.62 619.167C1103.44 543.874 1102.93 474.471 1107.42 434.584C1112.33 390.912 1105.93 365.324 1107.84 301.463C1110.75 203.976 1112.8 128.054 1063.79 81.0387C1021.92 40.8771 981.866 29.806 896.432 14.8141C836.987 4.38395 747.751 -10.6814 629.832 -55.5172" stroke="white" stroke-miterlimit="10"/>
<path d="M1172.44 612.591C1113.09 543.209 1108.56 475.198 1110.53 437.434C1112.8 393.679 1104.59 366.745 1104.61 300.885C1104.63 203.539 1107.63 134.056 1061.76 87.1038C1020.05 44.402 979.011 30.3689 892.446 12.0657C833.823 -0.327277 745.558 -17.3655 629.176 -60.8734" stroke="white" stroke-miterlimit="10"/>
<path d="M1187.25 606.016C1122.74 542.533 1114.04 475.884 1113.64 440.283C1113.14 396.391 1103.32 368.178 1101.38 300.306C1098.61 203.09 1102.56 139.968 1059.74 93.1677C1018.27 47.8499 976.134 31.0128 888.458 9.31908C830.645 -4.98522 743.368 -24.0496 628.521 -66.2317" stroke="white" stroke-miterlimit="10"/>
<path d="M1202.07 599.441C1132.39 541.855 1119.36 476.547 1116.75 443.134C1113.3 399.077 1102.12 369.589 1098.16 299.734C1092.65 202.631 1097.58 145.814 1057.71 99.2365C1016.59 51.2021 973.226 31.7429 884.472 6.57608C827.445 -9.59771 741.171 -30.7315 627.873 -71.591" stroke="white" stroke-miterlimit="10"/>
<path d="M1216.88 592.866C1142.04 541.18 1124.52 477.221 1119.86 445.992C1113.26 401.785 1100.98 370.992 1094.93 299.159C1086.77 202.146 1092.71 151.595 1055.69 105.306C1015.04 54.4778 970.278 32.5481 880.48 3.83588C824.219 -14.1553 738.981 -37.4088 627.209 -76.9361" stroke="white" stroke-miterlimit="10"/>
<path d="M1231.7 586.29C1151.69 540.493 1129.52 477.933 1122.96 448.834C1112.98 404.542 1099.89 372.359 1091.7 298.574C1080.95 201.625 1087.92 157.328 1053.66 111.363C1013.63 57.6605 967.289 33.4154 876.497 1.07726C820.97 -18.7 736.793 -44.104 626.56 -82.3043" stroke="white" stroke-miterlimit="10"/>
<path d="M1246.51 579.704C1161.34 539.817 1141.75 475.244 1126.07 451.673C1100.43 413.12 1098.87 373.699 1088.47 297.984C1075.17 201.07 1083.23 163.041 1051.64 117.428C1012.39 60.7688 964.236 34.3656 872.509 -1.6701C817.694 -23.2027 734.603 -50.7887 625.913 -87.6667" stroke="white" stroke-miterlimit="10"/>
<path d="M1261.33 573.139C1171 539.149 1145.09 476.393 1129.18 454.533C1101.3 416.219 1097.91 375.035 1085.25 297.417C1069.45 200.479 1078.65 168.754 1049.61 123.493C1011.33 63.8102 961.135 35.3772 868.517 -4.41591C814.379 -27.6788 732.406 -57.4711 625.247 -93.0186" stroke="white" stroke-miterlimit="10"/>
<path d="M1276.15 566.562C1180.65 538.473 1148.32 477.928 1132.29 457.383C1102.38 419.032 1097 376.332 1082.03 296.833C1063.77 199.857 1074.15 174.478 1047.59 129.553C1010.48 66.7793 957.982 36.4451 864.544 -7.16947C811.051 -32.1394 730.225 -64.1624 624.606 -98.3837" stroke="white" stroke-miterlimit="10"/>
<path d="M1290.96 559.987C1190.3 537.798 1148.65 481.916 1135.4 460.232C1109.32 417.514 1096.13 377.596 1078.8 296.256C1058.11 199.193 1069.74 180.232 1045.56 135.619C1009.84 69.7053 954.741 37.5807 860.544 -9.91591C807.661 -36.578 728.027 -70.8481 623.94 -103.738" stroke="white" stroke-miterlimit="10"/>
<path d="M1305.78 553.412C1199.95 537.121 1153.38 483.303 1138.51 463.083C1107.94 421.51 1095.32 378.832 1075.58 295.682C1052.49 198.493 1065.42 186.033 1043.54 141.686C1009.44 72.5827 951.461 38.7518 856.564 -12.6615C804.253 -41.002 725.842 -77.5303 623.292 -109.097" stroke="white" stroke-miterlimit="10"/>
<path d="M1320.59 546.836C1209.61 536.443 1158.21 484.885 1141.62 465.933C1106.53 425.834 1094.55 380.032 1072.35 295.104C1046.89 197.749 1061.18 191.893 1041.51 147.751C1009.27 75.4411 948.102 39.9743 852.574 -15.4098C800.813 -45.4219 723.646 -84.2121 622.634 -114.454" stroke="white" stroke-miterlimit="10"/>
<path d="M-165.625 152.425C-65.3826 98.6459 14.1412 90.9085 70.4088 95.12C117.317 98.6337 129.034 109.033 169.559 105.024C257.501 96.3207 367.606 30.9944 364.156 -48.0335C362.456 -86.9629 330.096 -100.066 290.581 -150.954C255.035 -196.732 215.755 -271.215 208.066 -394.145" stroke="white" stroke-miterlimit="10"/>
<path d="M-154.944 161.055C-61.1432 105.66 15.4626 96.23 69.4576 98.569C114.898 100.544 127.442 108.082 168.746 102.372C255.395 90.3937 359.457 29.594 358.797 -47.2141C358.459 -86.7762 328.966 -102.43 291.108 -155.017C257.779 -201.314 219.94 -275.448 211.847 -396.707" stroke="white" stroke-miterlimit="10"/>
<path d="M-144.265 169.683C-56.905 112.675 16.821 101.528 68.5101 102.014C112.544 102.428 125.82 107.171 167.937 99.7162C253.253 84.6158 351.497 28.1158 353.446 -46.4006C354.497 -86.6572 327.833 -104.739 291.642 -159.084C260.503 -205.849 224.135 -279.683 215.643 -399.272" stroke="white" stroke-miterlimit="10"/>
<path d="M-133.584 178.313C-52.6658 119.692 18.2245 106.792 67.5708 105.466C110.242 104.307 124.172 106.31 167.131 97.053C251.09 78.9816 343.728 26.5742 348.095 -45.5913C350.579 -86.5924 326.69 -106.995 292.177 -163.158C263.191 -210.324 228.333 -283.922 219.429 -401.836" stroke="white" stroke-miterlimit="10"/>
<path d="M-122.905 186.942C-48.4245 126.697 19.6698 112.006 66.6159 108.904C107.994 106.168 122.517 105.485 166.314 94.4056C248.9 73.5023 336.134 25.0005 342.734 -44.7691C346.689 -86.5693 325.512 -109.186 292.702 -167.218C265.835 -214.74 232.52 -288.151 223.216 -404.385" stroke="white" stroke-miterlimit="10"/>
<path d="M-112.226 195.57C-44.1912 133.718 21.1617 117.168 65.6683 112.349C105.811 108.003 120.839 104.729 165.504 91.7481C246.716 68.1495 328.726 23.3855 337.38 -43.9529C342.859 -86.5908 324.303 -111.321 293.233 -171.285C268.442 -219.115 236.713 -292.384 226.996 -406.955" stroke="white" stroke-miterlimit="10"/>
<path d="M-101.546 204.199C-39.9603 140.728 22.6926 122.253 64.7208 115.794C103.689 109.805 119.163 104.018 164.693 89.0937C244.54 62.9178 321.492 21.7526 332.025 -43.1375C339.086 -86.6402 323.068 -113.425 293.765 -175.351C271.005 -223.448 240.911 -296.623 230.783 -409.516" stroke="white" stroke-miterlimit="10"/>
<path d="M-90.861 212.823C-35.7118 147.742 24.2703 127.249 63.7777 119.233C101.633 111.553 117.502 103.349 163.887 86.4334C242.384 57.7949 314.427 20.1027 326.675 -42.3282C335.384 -86.7177 321.788 -115.481 294.3 -179.424C273.522 -227.742 245.104 -300.847 234.57 -412.079" stroke="white" stroke-miterlimit="10"/>
<path d="M-80.1865 221.458C-31.4785 154.764 25.8699 132.154 62.8267 122.685C99.6298 113.249 115.842 102.762 163.071 83.7819C240.248 52.7795 307.511 18.4649 321.316 -41.506C331.747 -86.7984 320.443 -117.488 294.826 -183.486C275.993 -232.007 249.291 -305.085 238.363 -414.65" stroke="white" stroke-miterlimit="10"/>
<path d="M-69.512 230.083C-27.244 161.774 27.4902 136.935 61.8743 126.126C97.6659 114.873 114.186 102.2 162.256 81.1238C238.133 47.8541 300.73 16.8366 315.956 -40.6944C328.18 -86.8814 319.042 -119.474 295.352 -187.557C278.411 -236.249 253.481 -309.324 242.137 -417.209" stroke="white" stroke-miterlimit="10"/>
<path d="M-58.8268 238.716C-22.9954 168.785 29.1301 141.598 60.9323 129.573C95.7524 116.408 112.57 101.699 161.45 78.4699C236.067 43.0104 294.095 15.2339 310.607 -39.8747C324.711 -86.9507 317.585 -121.424 295.887 -191.621C280.789 -240.463 257.678 -313.553 245.932 -419.767" stroke="white" stroke-miterlimit="10"/>
<path d="M-48.1474 247.345C-18.7647 175.807 30.7575 146.125 59.9848 133.017C93.8491 117.833 110.982 101.239 160.639 75.8154C234.035 38.2329 287.573 13.655 305.252 -39.0595C321.33 -87.0006 316.058 -123.359 296.42 -195.687C283.119 -244.667 261.87 -317.788 249.716 -422.33" stroke="white" stroke-miterlimit="10"/>
<path d="M-37.4671 255.975C-14.527 182.822 32.3563 150.519 59.0382 136.464C91.9342 119.134 109.413 100.837 159.83 73.1594C232.044 33.515 281.157 12.1151 299.897 -38.2458C318.043 -87.0118 314.461 -125.279 296.95 -199.754C285.403 -248.862 266.063 -322.021 253.502 -424.893" stroke="white" stroke-miterlimit="10"/>
<path d="M-26.7877 264.604C-10.2876 189.836 33.91 154.784 58.0907 139.908C89.9734 120.295 107.883 100.473 159.015 70.5063C230.091 28.8501 274.825 10.6146 294.541 -37.4267C314.868 -86.982 312.788 -127.19 297.478 -203.819C287.644 -253.057 270.252 -326.258 257.292 -427.452" stroke="white" stroke-miterlimit="10"/>
<path d="M-16.1083 273.233C-6.05088 196.851 35.3951 158.932 57.1382 143.359C87.917 121.312 106.385 100.156 158.204 67.8533C228.185 24.2274 268.586 9.17759 289.184 -36.6085C311.801 -86.8847 311.043 -129.1 298.002 -207.887C289.834 -257.249 274.44 -330.488 261.066 -430.017" stroke="white" stroke-miterlimit="10"/>
<path d="M-5.42793 281.863C-1.80708 203.859 36.7925 162.982 56.1951 146.798C85.729 122.163 104.935 99.8659 157.396 65.1918C226.33 19.6403 262.416 7.78297 283.834 -35.7979C308.856 -86.7189 309.234 -131.019 298.543 -211.955C292.005 -261.454 278.643 -334.724 264.862 -432.58" stroke="white" stroke-miterlimit="10"/>
<path d="M5.25734 290.484C2.4309 210.874 43.5412 171.16 55.2549 150.236C74.4127 116.012 103.529 99.6097 156.593 62.5283C224.515 15.0684 256.298 6.45624 278.479 -34.9829C306.035 -86.4511 307.338 -132.954 299.074 -216.022C294.134 -265.662 282.836 -338.957 268.654 -435.139" stroke="white" stroke-miterlimit="10"/>
<path d="M15.9308 299.12C6.66441 217.895 43.9671 174.125 54.3014 153.688C72.4153 117.87 102.15 99.401 155.776 59.8808C222.752 10.5296 250.221 5.2082 273.124 -34.168C303.332 -86.0778 305.378 -134.901 299.602 -220.092C296.228 -269.89 287.025 -343.194 272.431 -437.709" stroke="white" stroke-miterlimit="10"/>
<path d="M26.6117 307.75C10.9012 224.909 44.0567 177.151 53.3539 157.133C70.7103 119.767 100.821 99.2163 154.973 57.2296C221.025 6.00382 244.169 4.0282 267.778 -33.3456C300.766 -85.5696 303.355 -136.865 300.143 -224.151C298.305 -274.122 291.227 -347.423 276.229 -440.264" stroke="white" stroke-miterlimit="10"/>
<path d="M37.2906 316.378C15.1389 231.924 41.177 178.938 52.4071 160.576C74.5377 124.417 99.5352 99.0532 154.16 54.571C219.342 1.48207 238.126 2.9229 262.42 -32.5345C298.31 -84.9272 301.247 -138.87 300.669 -228.228C300.342 -278.393 295.418 -351.663 280.008 -442.834" stroke="white" stroke-miterlimit="10"/>
<path d="M47.9694 325.007C19.3765 238.94 41.9594 183.044 51.4592 164.024C70.9919 124.921 98.2896 98.9194 153.347 51.9171C217.697 -3.02638 232.084 1.90856 257.063 -31.7175C295.988 -84.1138 299.097 -140.889 301.201 -232.288C302.36 -282.67 299.611 -355.891 283.797 -445.392" stroke="white" stroke-miterlimit="10"/>
<path d="M58.6503 333.637C23.6159 245.954 42.6295 187.29 50.5117 167.469C67.1855 125.524 97.0881 98.8042 152.534 49.2586C216.094 -7.53768 226.029 0.976145 251.708 -30.9049C293.769 -83.1359 296.878 -142.95 301.732 -236.358C304.364 -286.971 303.8 -360.127 287.581 -447.958" stroke="white" stroke-miterlimit="10"/>
</g>
</svg>
